Coordinates
version=1
nRows=12
nColumns=42
inDegrees=yes

Units are S.I. units (second, meters, Newtons, ...)
If the header above contains a line with 'inDegrees', this indicates whether rotational values are in degrees (yes) or radians (no).

endheader
time	pelvis_tilt	pelvis_list	pelvis_rotation	pelvis_tx	pelvis_ty	pelvis_tz	hip_flexion_r	hip_adduction_r	hip_rotation_r	knee_angle_r	knee_adduction_r	knee_angle_r_beta	ankle_angle_r	subtalar_angle_r	mtp_angle_r	hip_flexion_l	hip_adduction_l	hip_rotation_l	knee_angle_l	knee_adduction_l	knee_angle_l_beta	ankle_angle_l	subtalar_angle_l	mtp_angle_l	lumbar_extension	lumbar_bending	lumbar_rotation	arm_flex_r	arm_add_r	arm_rot_r	elbow_flex_r	pro_sup_r	wrist_flex_r	wrist_dev_r	arm_flex_l	arm_add_l	arm_rot_l	elbow_flex_l	pro_sup_l	wrist_flex_l	wrist_dev_l
      2.43000000	      9.31755540	      3.47688793	     -2.55283206	      1.65708885	      0.85892963	     -0.17488339	     16.23324628	     -6.04975833	      2.00887462	     16.13918433	     -2.58246664	      0.28168191	     14.11389308	     10.20459047	     -7.50021635	    -29.31322875	      4.71700642	    -15.87547710	      6.00806582	      6.05014262	      0.10486053	     19.37917513	     16.31683603	     -7.50021635	    -20.00045983	     -5.45065132	     -4.76033112	     -6.76561562	     -2.07524107	    -29.55961095	     31.36002088	     90.00000001	      0.00000000	      0.00000000	      1.65291504	     -6.85617787	     -5.41364374	     48.47541716	     90.00000001	      0.00000000	      0.00000000
      2.44000000	      9.04416417	      3.53938138	     -2.49835178	      1.66974707	      0.85708280	     -0.17334887	     16.82540413	     -5.84053265	      2.37291932	     16.49539582	     -2.65724747	      0.28789897	     14.08513226	     10.10896382	     -7.50021348	    -29.40780399	      4.54714617	    -15.65039554	      7.00163350	      5.78588341	      0.12220156	     19.28825188	     16.36774112	     -7.50021348	    -19.53970836	     -5.50385965	     -4.78737206	     -6.80970886	     -2.01821879	    -29.73952625	     31.19016463	     90.00000001	      0.00000000	      0.00000000	      1.74674216	     -6.79464332	     -5.43492145	     48.29728738	     90.00000001	      0.00000000	      0.00000000
      2.45000000	      8.77803637	      3.51354730	     -2.47059281	      1.68274396	      0.85530376	     -0.17178064	     17.38204635	     -5.53524413	      2.58976288	     17.36030725	     -2.64982683	      0.30299452	     14.13413795	      9.60530444	     -7.50020971	    -29.45315826	      4.28692558	    -15.70450658	      8.17390222	      5.50477854	      0.14266151	     19.17419205	     16.35072983	     -7.50020971	    -19.04029591	     -5.46249133	     -4.74776479	     -6.82952630	     -1.98737064	    -30.00782542	     30.91548042	     90.00000001	      0.00000000	      0.00000000	      1.83541053	     -6.66672814	     -5.48877549	     47.95158154	     90.00000001	      0.00000000	      0.00000000
      2.46000000	      8.51914084	      3.41164412	     -2.37958845	      1.69588969	      0.85370353	     -0.17010160	     17.79660245	     -5.12820959	      2.88573153	     18.41567571	     -2.63407613	      0.32141418	     14.08102439	      9.20906435	     -7.50020699	    -29.51572750	      3.93863350	    -15.52960041	      9.26879545	      5.16862494	      0.16177100	     18.90590801	     16.36337145	     -7.50020699	    -18.56405765	     -5.33975193	     -4.76398628	     -6.86694091	     -1.95789553	    -30.15787906	     30.82724239	     90.00000001	      0.00000000	      0.00000000	      1.80529385	     -6.57847327	     -5.54671898	     47.71389801	     90.00000001	      0.00000000	      0.00000000
      2.47000000	      8.24883437	      3.11544036	     -2.35357544	      1.70940664	      0.85213234	     -0.16827979	     18.31097471	     -4.51495774	      2.65101455	     20.08419901	     -2.61212102	      0.35053540	     13.95798730	      8.39383877	     -7.50020196	    -29.52166664	      3.39064377	    -15.91861217	     10.55005141	      4.83302919	      0.18413313	     18.53567227	     16.43146314	     -7.50020196	    -18.04107361	     -5.01486381	     -4.66045361	     -6.91656015	     -1.92911418	    -30.44981239	     30.73845909	     90.00000001	      0.00000000	      0.00000000	      1.74851264	     -6.43408059	     -5.71452550	     47.38612348	     90.00000001	      0.00000000	      0.00000000
      2.48000000	      8.02107018	      2.94768238	     -2.23762133	      1.72280140	      0.85090874	     -0.16653455	     18.48515101	     -4.01530956	      3.05551249	     21.37219243	     -2.66859730	      0.37301513	     13.75743322	      8.27821760	     -7.50019978	    -29.57162274	      2.98488787	    -15.69728409	     11.67755240	      4.45449348	      0.20381174	     18.00899488	     16.42917884	     -7.50019978	    -17.62641075	     -4.81568799	     -4.74011760	     -6.92380788	     -1.90914937	    -30.49140347	     30.76677303	     90.00000001	      0.00000000	      0.00000000	      1.62244460	     -6.37694148	     -5.77956645	     47.16336740	     90.00000001	      0.00000000	      0.00000000
      2.49000000	      7.84037639	      2.57296753	     -2.26056305	      1.73652897	      0.84980577	     -0.16446918	     18.86371433	     -3.28940071	      2.60380029	     23.42867360	     -2.80634375	      0.40890749	     13.45308815	      7.83104999	     -7.50019631	    -29.56285621	      2.34284737	    -16.31347355	     13.14190684	      4.12654155	      0.22936954	     17.00406849	     16.20284173	     -7.50019631	    -17.21685828	     -4.43936201	     -4.56101403	     -6.97607678	     -1.90367205	    -30.54906388	     30.79908458	     90.00000001	      0.00000000	      0.00000000	      1.48433493	     -6.24035685	     -5.98392202	     46.84466894	     90.00000001	      0.00000000	      0.00000000
      2.50000000	      7.70604796	      2.13887673	     -2.22051713	      1.75025047	      0.84907865	     -0.16249716	     19.00995497	     -2.51536107	      2.48880951	     25.24087391	     -2.98550257	      0.44053636	     13.10891896	      7.90288093	     -7.50019320	    -29.57779980	      1.69139598	    -16.62672463	     14.52513861	      3.69200082	      0.25351149	     15.96714701	     16.08890077	     -7.50019320	    -16.91277654	     -3.97631505	     -4.52786835	     -6.98371906	     -1.91274783	    -30.54583892	     30.90297647	     90.00000001	      0.00000000	      0.00000000	      1.27347736	     -6.11521917	     -6.18467891	     46.58015125	     90.00000001	      0.00000000	      0.00000000
      2.51000000	      7.70050745	      1.25082362	     -2.06262451	      1.76437853	      0.84868370	     -0.16025963	     18.99243355	     -1.26829105	      1.35556549	     27.12228064	     -3.59052398	      0.47337310	     12.94648163	      9.19876621	     -7.50018022	    -29.55889023	      0.43120207	    -17.80090471	     16.35016512	      3.10659017	      0.28536421	     15.00419950	     16.94712332	     -7.50018022	    -16.73014318	     -3.03559773	     -4.50973871	     -7.04866510	     -1.94875778	    -30.30745878	     31.12628543	     90.00000001	      0.00000000	      0.00000000	      0.99563911	     -5.93113405	     -6.68500258	     46.31447290	     90.00000001	      0.00000000	      0.00000000
      2.52000000	      7.72071493	      0.88083383	     -2.02942724	      1.77792872	      0.84876949	     -0.15834724	     18.82561217	     -0.63331761	      1.95306553	     28.77066485	     -3.53248732	      0.50214283	     12.87661250	      9.19683409	     -7.50017891	    -29.57128641	     -0.04608186	    -17.68003039	     17.74872850	      2.53811586	      0.30977375	     13.60552611	     16.65517337	     -7.50017891	    -16.67766342	     -2.64939449	     -4.54876040	     -6.89078063	     -1.94670733	    -30.24804715	     31.20880405	     90.00000001	      0.00000000	      0.00000000	      0.73036730	     -5.88833520	     -6.78927046	     46.07204812	     90.00000001	      0.00000000	      0.00000000
      2.53000000	      7.84562199	     -0.00467897	     -2.06102107	      1.79195842	      0.84916345	     -0.15608475	     18.51931444	      0.63328712	      1.94532632	     30.50591903	     -3.72478703	      0.53242873	     12.69835972	      8.40668381	     -7.50017167	    -29.50404252	     -1.17496166	    -18.58280580	     19.74461313	      2.01699329	      0.34460851	     11.36708076	     15.73829702	     -7.50017167	    -16.68180018	     -1.74137622	     -4.40107697	     -6.90334750	     -2.03657123	    -29.81174020	     31.50449086	     90.00000001	      0.00000000	      0.00000000	      0.40656664	     -5.65967147	     -7.35152608	     45.83320863	     90.00000001	      0.00000000	      0.00000000
      2.54000000	      8.11214404	     -0.69746385	     -2.02206567	      1.80571799	      0.85003333	     -0.15396732	     17.88253262	      1.62373939	      2.74007017	     31.95776306	     -3.50686604	      0.55776819	     12.85867905	      7.35095060	     -7.50016586	    -29.44339530	     -2.04993040	    -18.93888029	     21.73723831	      1.36491744	      0.37938638	      9.08767435	     14.82466149	     -7.50016586	    -16.90550890	     -1.04802840	     -4.35615372	     -6.81001424	     -2.06203904	    -29.40963450	     31.73258229	     90.00000001	      0.00000000	      0.00000000	      0.10581413	     -5.55181045	     -7.73148387	     45.64663775	     90.00000001	      0.00000000	      0.00000000
